{"title":"Alien Trespass-AC3-5,1-DVDRip[Eng]2009","uid":5038462,"size":1462987237,"categoryP":"video","categoryS":"movies","magnet":"?xt=urn:btih:3b9880ae1adca0cc8c7b646554496fae85cdc679&amp;dn=Alien+Trespass-AC3-5%2C1-DVDRip%5BEng%5D2009&amp;tr=udp%3A%2F%2Ftracker.openbittorrent.com%3A80&amp;tr=udp%3A%2F%2Fopen.demonii.com%3A1337&amp;tr=udp%3A%2F%2Ftracker.coppersurfer.tk%3A6969&amp;tr=udp%3A%2F%2Fexodus.desync.com%3A6969","seeders":0,"leechers":2,"uploader":"FatFreddy31","files":-1,"time":1249247468,"description":" &lt;a href=&quot;http://www.imdb.com/title/tt1122836/&quot; rel=&quot;nofollow&quot; target=&quot;_NEW&quot;&gt;http://www.imdb.com/title/tt1122836/&lt;/a&gt;\n &lt;a href=&quot;\nhttp://www.alientrespass.com/&quot; rel=&quot;nofollow&quot; target=&quot;_NEW&quot;&gt;\nhttp://www.alientrespass.com/&lt;/a&gt;\n\nUser Rating:6.8/10 - 340 votes\n\nComedy,Horror,Sci-Fi,Thriller\n\nDirector:R.W. Goodwin\n\nCast:Robert Patrick/Eric McCormack/Jenni Baird/Jody Thompson, and others.\n\nPlot:\nAfter crash landing near a desert town, an alien enlists the help of a local waitress to re-capture a monster that escaped from the wreckage of his space ship.....\n\nInfo:\n\nGeneral\nComplete name                    : Alien Trespass-AC3-5,1-DVDRip[Eng]2009.avi\nFormat                           : AVI\nFormat/Info                      : Audio Video Interleave\nFile size                        : 1.36 GiB\nDuration                         : 1h 24mn\nOverall bit rate                 : 2 307 Kbps\nWriting application              : VirtualDubMod 1.5.4.1 (build 2178/release)\nWriting library                  : VirtualDubMod build 2178/release\n\nVideo\nFormat                           : MPEG-4 Visual\nFormat profile                   : Simple@L3\nFormat settings, BVOP            : No\nFormat settings, QPel            : No\nFormat settings, GMC             : No warppoints\nFormat settings, Matrix          : Default\nCodec ID                         : XVID\nCodec ID/Hint                    : XviD\nDuration                         : 1h 24mn\nBit rate                         : 1 850 Kbps\nWidth                            : 656 pixels\nHeight                           : 352 pixels\nDisplay aspect ratio             : 1.864\nFrame rate                       : 23.976 fps\nResolution                       : 24 bits\nColorimetry                      : 4:2:0\nScan type                        : Progressive\nBits/(Pixel*Frame)               : 0.334\nStream size                      : 1.09 GiB (80%)\nWriting library                  : XviD 1.1.2 (UTC 2006-11-01)\n\nAudio\nFormat                           : AC-3\nFormat/Info                      : Audio Coding 3\nCodec ID                         : 2000\nDuration                         : 1h 24mn\nBit rate mode                    : Constant\nBit rate                         : 448 Kbps\nChannel(s)                       : 6 channels\nChannel positions                : Front: L C R, Surround: L R, LFE\nSampling rate                    : 48.0 KHz\nStream size                      : 271 MiB (19%)\nAlignment                        : Split accross interleaves\nInterleave, duration             : 42 ms (1.00 video frame)\nInterleave, preload duration     : 500 ms\n\nEnjoy....","torrent":{"xt":"urn:btih:3b9880ae1adca0cc8c7b646554496fae85cdc679","amp;dn":"Alien+Trespass-AC3-5%2C1-DVDRip%5BEng%5D2009","amp;tr":["udp%3A%2F%2Ftracker.openbittorrent.com%3A80","udp%3A%2F%2Fopen.demonii.com%3A1337","udp%3A%2F%2Ftracker.coppersurfer.tk%3A6969","udp%3A%2F%2Fexodus.desync.com%3A6969"],"infoHash":"3b9880ae1adca0cc8c7b646554496fae85cdc679","infoHashBuffer":{"type":"Buffer","data":[59,152,128,174,26,220,160,204,140,123,100,101,84,73,111,174,133,205,198,121]},"announce":[],"urlList":[]}}